<svg width="139" height="21" viewBox="0 0 139 21" fill="none" xmlns="http://www.w3.org/2000/svg">
<path d="M18.4551 9.1995L18.4581 9.674C18.4582 9.69662 18.4767 9.71494 18.4994 9.71466C18.8646 9.70965 21.5623 9.67386 22.5042 9.7032C24.1059 9.75316 24.8705 11.1559 24.8705 12.511C24.8705 14.248 24.8763 19.8931 24.8705 20.8064C24.87 20.878 24.9808 20.936 25.0524 20.9355L26.8793 20.9351C27.0898 20.9351 27.1032 20.8779 27.1034 20.8073C27.1064 19.912 27.1034 14.4586 27.1034 12.497C27.1034 10.4561 25.2976 9.49451 23.7228 9.4029C25.6562 9.26205 26.9849 8.06883 27.0654 6.39366C27.0913 5.85317 27.0528 4.3678 27.0519 4.22953C27.0399 2.31561 25.5066 1.00745 23.4705 0.952768C22.2892 0.921135 18.553 0.941174 18.0477 0.949476C18.0122 0.950048 17.984 0.978964 17.9841 1.01446L18.4173 2.97734C18.4176 3.01341 18.447 3.04233 18.4833 3.04147C18.9267 3.03045 21.4999 2.9699 22.4097 3.03216C23.8394 3.13007 24.7332 4.30167 24.8109 5.39211C24.8289 5.64533 24.8186 6.40755 24.8186 6.40755C24.8278 7.88347 23.8534 9.08913 22.5149 9.11705L18.4956 9.15841C18.473 9.15856 18.4549 9.17702 18.4551 9.1995Z" fill="white"/>
<path d="M13.7098 9.22898L13.7128 9.70349C13.7129 9.72611 13.7314 9.74443 13.754 9.74414C14.1193 9.73913 16.5633 9.70492 17.5051 9.73427C19.1069 9.78422 19.8714 11.187 19.8714 12.5421C19.8714 14.3533 19.8772 19.8932 19.8714 20.8066C19.8709 20.878 19.9817 20.936 20.0533 20.9355L22.0291 20.9343C22.0995 20.9338 22.1042 20.8769 22.1044 20.8064C22.1074 19.9109 22.1044 14.8796 22.1044 12.5281C22.1044 10.4872 20.2985 9.52557 18.7238 9.43396C20.6571 9.29311 21.9858 8.09989 22.0663 6.42473C22.0922 5.88423 22.0537 4.39886 22.0528 4.26059C22.0408 2.34667 20.5141 1.01303 18.478 0.958494C17.2967 0.926861 14.0444 0.943464 13.539 0.951767C13.5036 0.952339 13.4754 0.981253 13.4756 1.01675L14.0706 2.94929C14.0709 2.9855 14.1004 3.01441 14.1366 3.01356C14.5801 3.00239 16.5074 2.96976 17.4174 3.03202C18.8469 3.12993 19.7342 4.33274 19.8118 5.42318C19.8299 5.67639 19.8196 6.43875 19.8196 6.43875C19.8287 7.91453 18.8544 9.1202 17.5159 9.14811L13.7503 9.1879C13.7277 9.18804 13.7096 9.20651 13.7098 9.22898Z" fill="white"/>
<path d="M8.64972 9.1995L8.64671 9.674C8.64657 9.69662 8.6281 9.71494 8.60534 9.71466C8.24019 9.70965 5.54243 9.67386 4.60057 9.7032C2.99883 9.75316 2.23432 11.1559 2.23432 12.511C2.23432 14.248 2.22845 19.8931 2.23432 20.8064C2.23475 20.878 2.12396 20.936 2.05239 20.9355L0.225493 20.9351C0.014934 20.9351 0.00147911 20.8779 0.00133597 20.8073C-0.00166997 19.912 0.00133597 14.4586 0.00133597 12.497C0.00133597 10.4561 1.80719 9.49451 3.38202 9.4029C1.44863 9.26205 0.119856 8.06883 0.0394111 6.39366C0.0135027 5.85317 0.0520077 4.3678 0.0528665 4.22953C0.0648903 2.31561 1.59821 1.00745 3.63423 0.952768C4.81557 0.921135 8.55181 0.941174 9.05709 0.949476C9.09259 0.950048 9.12079 0.978964 9.12065 1.01446L8.68751 2.97734C8.68722 3.01341 8.65773 3.04233 8.62152 3.04147C8.17807 3.03045 5.60484 2.9699 4.69504 3.03216C3.26536 3.13007 2.37159 4.30167 2.29387 5.39211C2.27583 5.64533 2.28614 6.40755 2.28614 6.40755C2.27698 7.88347 3.25133 9.08913 4.58983 9.11705L8.60921 9.15841C8.63182 9.15856 8.64986 9.17702 8.64972 9.1995Z" fill="white"/>
<path d="M13.395 9.22898L13.3919 9.70349C13.3918 9.72611 13.3733 9.74443 13.3506 9.74414C12.9854 9.73913 10.5415 9.70492 9.5996 9.73427C7.99786 9.78422 7.23335 11.187 7.23335 12.5421C7.23335 14.3533 7.22748 19.8932 7.23335 20.8066C7.23377 20.878 7.12298 20.936 7.05141 20.9355L5.07565 20.9343C5.00523 20.9338 5.0005 20.8769 5.00036 20.8064C4.99735 19.9109 5.00036 14.8796 5.00036 12.5281C5.00036 10.4872 6.80622 9.52557 8.3809 9.43396C6.44765 9.29311 5.11888 8.09989 5.03843 6.42473C5.01253 5.88423 5.05103 4.39886 5.05189 4.26059C5.06391 2.34667 6.59065 1.01303 8.62667 0.958494C9.80801 0.926861 13.0603 0.943464 13.5657 0.951767C13.6011 0.952339 13.6293 0.981253 13.6291 1.01675L13.0341 2.94929C13.0338 2.9855 13.0043 3.01441 12.9681 3.01356C12.5247 3.00239 10.5973 2.96976 9.68734 3.03202C8.2578 3.12993 7.37047 4.33274 7.29289 5.42318C7.27486 5.67639 7.28516 6.43875 7.28516 6.43875C7.276 7.91453 8.25036 9.1202 9.58886 9.14811L13.3544 9.1879C13.3771 9.18804 13.3951 9.20651 13.395 9.22898Z" fill="white"/>
<path d="M12.2273 6.28724C12.2273 6.28724 12.2055 5.21999 12.2197 4.86515C12.2356 4.4708 12.3057 4.06814 12.4256 3.68496C12.7623 2.60912 14.2072 2.6001 14.5573 3.67165C14.682 4.05326 14.7571 4.45505 14.7779 4.84926C14.7966 5.20396 14.788 6.27121 14.788 6.27121C14.7938 7.17342 14.6118 8.00278 14.2938 8.65406C13.9714 9.31437 13.0819 9.31995 12.7513 8.6638C12.4251 8.01652 12.2328 7.18931 12.2273 6.28724ZM17.1255 12.5601C17.0707 11.0731 16.0561 10.1374 14.9286 9.71588C14.5102 9.55942 14.12 9.46982 13.6939 9.44506C14.177 9.40984 14.5748 9.30922 14.977 9.15148C16.1839 8.67797 16.9748 7.69288 17.0352 6.43682C17.0611 5.89661 17.0224 4.41182 17.0216 4.27355C17.0143 3.08864 16.4738 2.13604 15.5415 1.56949C14.9685 1.22123 14.2671 0.969448 13.4925 0.948692L13.4747 0.948265L13.457 0.948837C12.6827 0.979326 11.9838 1.23984 11.4152 1.59526C10.4901 2.1734 9.96149 3.13258 9.96893 4.31764C9.96979 4.45591 9.94975 5.94099 9.98239 6.48091C10.0584 7.73596 10.8616 8.71118 12.0744 9.16951C12.4786 9.32224 12.8775 9.418 13.3611 9.4472C12.9352 9.47726 12.5462 9.57159 12.1296 9.73334C11.0076 10.1689 10.0567 11.0726 10.0205 12.5601C9.97437 14.4594 10.0064 19.9099 10.0205 20.8049C10.0216 20.8754 10.129 20.933 10.1994 20.9326H12.1744C12.246 20.9322 12.3033 20.8764 12.302 20.8049C12.2848 19.8918 12.235 14.3455 12.302 12.5601C12.3398 11.5528 12.6766 10.5213 13.5311 10.0263C14.3917 10.5106 14.8434 11.5532 14.8938 12.5601C14.983 14.3445 14.8995 19.8917 14.8938 20.8049C14.8932 20.8764 14.9514 20.933 15.0229 20.9326H16.998C17.0684 20.9322 17.1252 20.8754 17.1255 20.8049C17.1285 19.9097 17.1954 14.4587 17.1255 12.5601Z" fill="white"/>
<path d="M37.709 5.10604H49.335V7.23238H40.4009V10.9776H47.9694V12.8502H40.4009V17.9414H37.709V5.10604Z" fill="white"/>
<path d="M60.5312 13.3184L57.1174 7.27132H57.0981L53.6843 13.3184H60.5312ZM61.526 15.0935H52.6895L51.0901 17.9414H48.2615L55.6936 5.10618H58.8342L66.2661 17.9414H63.1256L61.526 15.0935Z" fill="white"/>
<path d="M76.4281 15.9127C78.6518 15.9127 79.4711 15.1324 79.4711 13.923C79.4711 12.9671 78.4958 12.265 76.6622 12.265H70.7711V15.9127H76.4281ZM76.5451 10.4898C78.1447 10.4898 78.9835 9.84612 78.9835 8.81222C78.9835 7.8174 78.1641 7.13476 76.0185 7.13476H70.7711V10.4898H76.5451ZM68.0793 5.10604H76.1746C80.1345 5.10604 81.3439 6.66655 81.3439 8.4611C81.3439 9.6901 80.6416 10.8409 79.1395 11.2117V11.2311C81.0901 11.5432 82.007 12.7917 82.007 14.1571C82.007 16.3808 80.6416 17.9414 76.7793 17.9414H68.0793V5.10604Z" fill="white"/>
<path d="M95.4264 15.8152C98.8401 15.8152 100.206 14.3522 100.206 11.5237C100.206 9.14388 98.9962 7.23238 95.0558 7.23238H91.3496V15.8152H95.4264ZM88.6577 5.10604H94.9582C101.005 5.10604 102.878 8.07104 102.878 11.5237C102.878 15.6006 100.83 17.9414 95.5045 17.9414H88.6577V5.10604Z" fill="white"/>
<path d="M115.517 13.3184L112.104 7.27132H112.084L108.671 13.3184H115.517ZM116.512 15.0935H107.676L106.076 17.9414H103.248L110.68 5.10618H113.82L121.252 17.9414H118.112L116.512 15.0935Z" fill="white"/>
<path d="M135.297 11.4655C135.297 8.9882 133.463 6.9984 129.796 6.9984C126.128 6.9984 124.295 8.9882 124.295 11.4655C124.295 14.216 126.109 16.0496 129.796 16.0496C133.58 16.0496 135.297 14.0794 135.297 11.4655ZM121.525 11.4655C121.525 7.83721 124.217 4.8722 129.796 4.8722C135.375 4.8722 138.066 7.83721 138.066 11.4655C138.066 15.1913 135.55 18.1758 129.796 18.1758C124.197 18.1758 121.525 15.3864 121.525 11.4655Z" fill="white"/>
</svg>
